<?xml version="1.0" encoding="UTF-8"?>
<svg id="Capa_1" data-name="Capa 1" xmlns="http://www.w3.org/2000/svg" viewBox="0 0 3000 3000">
  <defs>
    <style>
      .cls-1 {
        fill: #030303;
      }

      .cls-1, .cls-2, .cls-3, .cls-4, .cls-5, .cls-6, .cls-7 {
        stroke-width: 0px;
      }

      .cls-2 {
        fill: #000;
      }

      .cls-3 {
        fill: #cf393b;
      }

      .cls-4 {
        fill: #ead3d7;
      }

      .cls-5 {
        fill: #ebe4e5;
      }

      .cls-6 {
        fill: #fff;
      }

      .cls-7 {
        fill: #f7f7f7;
      }
    </style>
  </defs>
  <g>
    <path class="cls-6" d="M796.18,1264.11c-.66,10.37.87,19.02-2.92,27.14-2.63,5.67-5.52,7.82-11.7,3.6-35.22-24.01-47.52-54.49-45.8-94.1.24-5.45,1.67-11.2,5.61-15.45,6.21-6.69,11.59-13.25,7.72-23.42-1.35-3.52,1.64-6.2,4.7-7.96,3.8-2.18,5.28,1.39,7.2,3.27,8.39,8.2,13.44,18.48,17.72,29.18,10.24,25.58,16.69,51.99,17.47,77.74Z"/>
    <path class="cls-6" d="M1950.63,1772.15c24.79,32.26,27.84,68.64,19.39,106.79-3.97,17.94-10.97,34.8-24.12,48.37-1.22,1.48-2.44,2.95-3.66,4.43-3.16,4.58-6.13,9.37-11.87,11.22.03-.04.05-.07.08-.11l-.12.12s.03,0,.04,0c-2.3,3.15-3.99,7.13-8.97,6.71l.09-.12-.12.12h.03c-10.06,13.36-25.31,17.15-40.24,20.6-24.34,5.64-48.21,4.9-70.05-9.43l.15.12c-33.94-16.38-70.71-23.62-106.89-32.49-77.5-19-155.93-32.07-236.06-27.92-79.75,4.14-157.78,18.41-233.15,45.55-15.31,5.51-31.6,8.07-46.24,15.53l-.85.59c-.92.36-1.83.71-2.75,1.07l.19-.15c-31.41,17.04-84.28,9-108.92-16.57l-.65-.65-7.11-6.74c-2.3-2.55-4.6-5.1-6.89-7.66-37.41-37-41.83-104.72-19.2-148.15,9.78-18.78,26.36-30.85,44.93-40.36,68.47-35.04,140.3-58.85,216.82-69.43,75.36-10.42,150.73-18.89,226.91-17.16,68.07,1.55,135.97,5.02,202.36,22.12,3.57.92,7.08,2.05,10.62,3.08,6.29,1.19,12.54,2.46,18.13,5.82,19.57,2.68,37.59,10.52,55.95,17.12,21.82,7.84,44.26,14.12,64.85,25.14,1.69.23,3.57-.02,4.53,1.92,15.47,7.43,32.3,12.43,44.83,25.11l-.12-.13c7.48,1.83,11.75,7.58,16.11,13.21l-.17-.16c.71.83,1.41,1.64,2.12,2.47l.02.03Z"/>
    <path class="cls-2" d="M1950.63,1772.15l-.02-.03c-.71-.83-1.41-1.64-2.12-2.47l.17.16c-4.36-5.63-8.63-11.38-16.11-13.21l.12.13c-12.53-12.68-29.36-17.68-44.83-25.11-.96-1.94-2.84-1.69-4.53-1.92-20.59-11.02-43.03-17.3-64.85-25.14-18.36-6.6-36.38-14.44-55.95-17.12-5.59-3.36-11.84-4.63-18.13-5.82-3.54-1.03-7.05-2.16-10.62-3.08-66.39-17.1-134.29-20.57-202.36-22.12-76.18-1.73-151.55,6.74-226.91,17.16-76.52,10.58-148.35,34.39-216.82,69.43-18.57,9.51-35.15,21.58-44.93,40.36-22.63,43.43-18.21,111.15,19.2,148.15,2.29,2.56,4.59,5.11,6.89,7.66l7.11,6.74.65.65c24.64,25.57,77.51,33.61,108.92,16.57l-.19.15c.92-.36,1.83-.71,2.75-1.07l.85-.59c14.64-7.46,30.93-10.02,46.24-15.53,75.37-27.14,153.4-41.41,233.15-45.55,80.13-4.15,158.56,8.92,236.06,27.92,36.18,8.87,72.95,16.11,106.89,32.49l-.15-.12c21.84,14.33,45.71,15.07,70.05,9.43,14.93-3.45,30.18-7.24,40.24-20.6,4.98.42,6.67-3.56,8.97-6.71,5.74-1.85,8.71-6.64,11.87-11.22,1.22-1.48,2.44-2.95,3.66-4.43,13.15-13.57,20.15-30.43,24.12-48.37,8.45-38.15,5.4-74.53-19.39-106.79ZM2324,1058.68c19.49,103.1-4.55,198.74-48.26,291.44-55.43,117.53-135.72,216.23-229,305.27-30.73,29.33-63.93,55.73-98,82.44,26,20.43,39.16,47.71,42.8,79.94.37,3.28,1.72,5.18,4.87,6.63,41.02,18.97,83.09,34.26,129.11,33.12,29.39-.73,56.28-11.4,82.62-23.6,13.45-6.22,26.55-13.83,42.03-13.99-15.53,17.73-35,30.37-55.01,42.27-19.44,11.56-39.94,21.1-60.05,31.41-48.23,24.73-83.77,60.86-100.31,113.68-6.1,19.48-1.92,36.5,11.41,51.8,20.12,23.09,43.87,38.88,75.71,39.31,2.96.04,5.92.51,8.87.87.71.09,1.36.53,3.22,1.3-15.42,4.61-30.23,3.1-44.76,2.47-95.22-4.11-185.22-29.7-272.8-65.92-22.3-9.22-31.69-25.38-33.92-47.52-1.9-18.92-1.57-19.07-19.77-24.22-16-4.53-32.1-8.71-48.12-13.14-5.39-1.49-9.38-.74-13.98,3.42-37.92,34.32-72.26,72.12-107.08,109.44-18.6,19.93-34.35,42.03-48.55,65.32-4.91,8.06-5.27,16.08-5.97,25.15-1.84,23.85,8.78,38.14,26.66,53.33,59.56,50.62,42.74,133.7-31.45,163.37-21.38,8.55-43.99,12.65-66.2,18.14-8.29,2.04-10.11,4.97-7.31,13.73,5.15,16.09,11.5,32.38,6.31,50.02-5,17-22.92,26.89-42.76,23.18-15.22-2.85-23.07-16.64-21.15-35.22,1.84-17.74,6.79-33.47,22.77-43.63,4.79-3.04,2.79-6.62,1.42-10.62-7.58-22.13-14.22-44.38-15.21-68.12-1.02-24.28,4.93-34.34,27.97-40.86,10.67-3.02,21.66-5.1,32.62-6.86,18.05-2.9,29.12-13.55,35.28-30.11,1.41-3.78,2.28-7.77,3.73-11.54,5.64-14.69,3.25-26.46-11.64-34.23-4.33-2.25-7.89-5.8-10.11-10.16-29.51-58.17-72.17-106.2-117.12-152.51-25.7-26.48-51.05-53.3-77.86-78.69-4.65-4.41-8.23-5.33-14.35-3.14-18.74,6.71-37.73,12.72-56.73,18.66-6.76,2.12-10.71,4.89-9.96,13.13.75,8.12-2.05,16.12-3.83,24.12-2.55,11.45-9.26,19.67-19.7,24.08-72.78,30.74-146.92,56.69-226.12,65.7-30.44,3.46-60.8,5.03-91.5,3.96,1.08-5.83,5.49-4.13,8.74-4.17,35.98-.46,61.51-19.14,81.53-47.02,9.27-12.91,10.54-27.42,5.86-42.5-14.77-47.52-45.93-81.92-87.97-106.54-25.51-14.94-52.61-27.14-78.72-41.08-20.07-10.71-37.33-25.3-53.74-41.11,11.77,1.11,22.22,5.76,32.54,10.61,25.81,12.14,51.89,23.88,80.71,26.12,41.29,3.2,79.75-8.02,117.94-22.9,20.6-8.03,33.23-18.76,37.4-41.27,3.9-21.04,18.18-36.9,34.49-50.76-44.82-36.92-89.91-72.39-129.88-113.74-60.92-63.05-117.89-129.21-162.83-204.94-40.03-67.44-69.98-138.74-83.66-216.42-19.51-110.77,2.52-213.08,61.62-308.1,42.66-68.59,104.61-113.73,177.21-145.73,63.56-28.01,130.4-43.08,199.74-42.54,105.13.82,200.76,31.01,283.73,97.8,40.13,32.31,73.95,70.2,104.37,111.37,4.85,6.57,6.59,8.32,11.45.12,62.4-105.25,155.98-167.53,272.94-197.53,53.04-13.6,106.98-20.67,161.4-14.91,107.27,11.35,199.62,54.21,272.91,135.15,56.32,62.2,87.98,135.86,103.4,217.47ZM2073.32,1147.19c.46-58.92-12.31-108.79-42.9-152.21-45.59-64.7-116.22-93.8-195.61-63.21-50.65,19.51-90.99,53.05-124.32,95.04-73.05,91.99-114.16,194.63-100.19,314.27,6.01,51.53,22.09,99.6,57.93,138.93,38.19,41.92,85.08,59.21,141.59,49.65,34.36-5.81,63.9-21.8,90.99-42.48,44.33-33.85,78.57-76.72,106.64-124.57,39.03-66.55,64.52-137.33,65.87-215.42ZM1552.25,2343.17c19.03-15.71,29.77-35.36,25.58-60.42-3.99-23.87-17.67-41.95-37.97-55.7-3.03,8.54-5.31,16.39-8.55,23.83-9.91,22.75-27.38,34.12-52.33,34.41-12.28.15-24.53,1.52-36.81,1.77-7.08.14-8.74,3.28-8.36,9.78,1.63,27.27,8.53,53.31,17.34,78.98,1.54,4.49,2.89,5.51,7.82,3.7,10.7-3.94,21.8-6.8,32.78-9.98,21.31-6.18,42.84-11.81,60.5-26.37ZM1436.89,2460.55c7.8-3.19,8.63-10.34,8.02-17.8-.91-11.16-4.95-21.37-9.51-33.08-9.37,7.72-16.8,15.52-21.62,25.23-3.35,6.76-2.76,14.07,3.19,19.43,5.52,4.97,12.02,9.44,19.92,6.22ZM1397.66,1289.28c-.89-9.44-1.5-27.01-4.35-44.22-8.31-50.2-24.18-98.08-47.11-143.52-34.02-67.4-81.74-122-149.7-156.84-41.27-21.15-84.82-30.55-130.59-17.11-58.37,17.14-94.84,58.41-118.18,112.37-23.02,53.23-25.53,109.12-16.24,165.53,10.23,62.11,35.32,118.59,68.37,171.87,29.94,48.25,66.08,90.56,113.94,121.92,29.69,19.46,61.62,33.62,97.75,33.47,59.29-.26,104.43-28.13,138.69-74.98,34.92-47.73,45.57-102.83,47.42-168.49ZM793.26,1291.25c3.79-8.12,2.26-16.77,2.92-27.14-.78-25.75-7.23-52.16-17.47-77.74-4.28-10.7-9.33-20.98-17.72-29.18-1.92-1.88-3.4-5.45-7.2-3.27-3.06,1.76-6.05,4.44-4.7,7.96,3.87,10.17-1.51,16.73-7.72,23.42-3.94,4.25-5.37,10-5.61,15.45-1.72,39.61,10.58,70.09,45.8,94.1,6.18,4.22,9.07,2.07,11.7-3.6Z"/>
    <path class="cls-2" d="M2250.63,1819.92c-.15,0-.31,0-.46.01.05-.06.11-.12.16-.18l.3.17Z"/>
    <path class="cls-2" d="M1930.45,1942.85s-.05.07-.08.11c-.01,0-.03,0-.04,0l.12-.12Z"/>
    <path class="cls-2" d="M1921.49,1949.55l-.09.12h-.03l.12-.12Z"/>
  </g>
  <path class="cls-6" d="M1635.05,1490.06c.67,9.11-2.34,17.61-5.87,25.73-8.22,18.93-19.61,35.66-34.18,50.21-14.21,14.19-25,19-52.03,18.99-19.33-.71-38.15-4.2-56.37-10.72-2.57-.92-6.96-1.23-5.66-5.25,1.32-4.06,4.63-1.51,7.43-.79,13.6,3.52,27.23,6.79,41.22,8.56,25.13,3.19,47.42-2.27,64.9-21.39,13.8-15.1,25.7-31.52,31.98-51.47,1.52-4.81,1.51-9.48,1.52-14.28.01-3.07-.22-6.95,3.43-7.13,5.37-.27,3.42,4.7,3.63,7.54Z"/>
  <path class="cls-6" d="M1873.66,1995.47c-2.24,9.49-9.22,6.72-13.79,8.52-7.86,3.55-17.01.6-24.71,4.94,13.59,8.07,27.4,15.84,41.41,29.14-26.62-7.05-51.2-11.39-69.28-29.65-10.02-10.11-7.52-24.66-8.4-38.79,21.94,17.46,44.75,31.44,74.77,25.84Z"/>
  <path class="cls-6" d="M1190.64,1978.75c3.01,2.18,1.66,7.16.75,10.45-1.87,6.84,2.03,16.69-9.07,19.19-26.78,14.1-53.77,27.67-83.5,34.57,18.92-21.41,45.48-27.08,70.73-35.39-7.53-3.97-15.7-1.72-23.56-2.26-11.88-.8-22.65-4.18-32.66-11.43,3.56-3.73,7.33-2.73,10.04-1.94,20.84,6.05,39.45.5,57.33-10.01,3.07-1.8,6.62-5.59,9.94-3.18Z"/>
  <path class="cls-6" d="M1441.32,945.36c2.11,9.18,1.86,18.24-5.86,24.68-7.96,6.64-16.52,4.21-24.93-.23-16.1-8.51-28.45-21.48-41.13-34.02-26.26-25.97-53.32-50.96-84.56-70.97-61.36-39.32-128.3-59.29-201.32-56.41-65.05,2.56-121.96,25.83-170.71,69.36-42.22,37.69-76.75,80.52-97.22,134.08-9.8,25.63-22.89,49.89-38.61,72.55-2.34,3.36-4.43,6.96-7.17,9.95-6.79,7.39-13.37,15.28-25.45,11.91-12.43-3.46-16.24-13.19-18.11-24.21-5.47-32.37,3.57-62.68,14.22-92.5,28.04-78.52,80.18-136.01,153.6-174.89,47.22-25.02,95-48.4,148.51-56.88,24.69-3.92,49.5-6.13,77.94-4.47,55.2.25,107.71,22.02,160.19,45.17,54.99,24.25,100.6,59.85,138.1,106.33,9.8,12.16,18.92,24.87,22.51,40.55Z"/>
  <path class="cls-1" d="M2250.63,1819.92c-.15-.46-.29-.92-.44-1.38.29-.03.58-.07.88-.1-.26.43-.52.86-.76,1.3.01,0,.32.18.32.18Z"/>
  <path class="cls-3" d="M2073.32,1147.19c-1.35,78.09-26.84,148.87-65.87,215.42-28.07,47.86-62.3,90.72-106.64,124.57-27.09,20.68-56.63,36.68-90.99,42.49-56.5,9.56-103.4-7.74-141.59-49.65-35.84-39.33-51.92-87.4-57.93-138.93-13.97-119.64,27.15-222.28,100.19-314.27,33.34-41.99,73.68-75.53,124.32-95.04,79.39-30.59,150.02-1.49,195.61,63.22,30.59,43.42,43.37,93.29,42.91,152.21ZM1623.45,1275.03c3.24,56.9,28.5,105.21,84.01,134.43,43.66,22.99,95.52,6.05,116.34-36.73,13.02-26.75,18.33-54.93,12.32-84.39-11.7-57.29-38.77-102.63-98.63-120.06-24.23-7.05-48.27-3.77-69.31,10.9-31.61,22.03-44,53.94-44.72,95.86Z"/>
  <path class="cls-3" d="M1397.66,1289.28c-1.85,65.66-12.5,120.76-47.41,168.5-34.27,46.85-79.4,74.72-138.69,74.97-36.13.15-68.06-14-97.75-33.46-47.86-31.37-84-73.67-113.94-121.93-33.05-53.27-58.14-109.75-68.37-171.87-9.29-56.41-6.78-112.3,16.24-165.53,23.34-53.96,59.81-95.22,118.18-112.37,45.77-13.44,89.32-4.04,130.59,17.11,67.96,34.84,115.69,89.44,149.7,156.84,22.93,45.44,38.8,93.32,47.11,143.53,2.85,17.2,3.46,34.78,4.35,44.21ZM1178.23,1290.41c1.15,19.97,3.05,39.96,11.4,59.2,30.38,70.04,104.06,85.15,158.76,32.11,46.74-45.31,55.15-129.77,18.45-185.2-31.28-47.24-85.3-57.85-130.64-23.98-38.78,28.97-56.71,69.36-57.97,117.88ZM970.35,1061.94c-.33,27.68,15.7,39.01,36.53,27.88,26.26-14.03,44.51-36.73,56.27-63.9,3.71-8.56,1.9-18.44-5.56-25.83-6.82-6.76-14.65-5.51-22.84-3.08-10.89,3.24-20.91,8.35-30.38,14.33-20.14,12.71-31.75,31.03-34.01,50.6Z"/>
  <path class="cls-5" d="M1068.83,1939.18c-2.31-2.57-4.62-5.14-6.93-7.71"/>
  <path class="cls-5" d="M1950.77,1772.31c-.76-.88-1.52-1.77-2.28-2.65.76.88,1.52,1.77,2.28,2.65Z"/>
  <path class="cls-5" d="M1185.32,1963.29c.53-1.36,1.37-1.89,2.75-1.08-.92.36-1.83.72-2.75,1.08Z"/>
  <path class="cls-1" d="M1623.45,1275.03c.72-41.92,13.11-73.83,44.72-95.86,21.04-14.67,45.09-17.95,69.31-10.9,59.86,17.43,86.93,62.77,98.63,120.06,6.01,29.46.71,57.64-12.32,84.39-20.82,42.79-72.67,59.72-116.34,36.73-55.5-29.22-80.77-77.53-84.01-134.43ZM1647.54,1263.85c.4,5.05-1.46,12.88,6.46,16.03,8.06,3.2,12.06-3.47,16.21-8.7,10.28-12.92,22.47-23.75,35.87-33.34,3.91-2.8,7.85-5.85,10.88-9.54,5.67-6.9,7.09-14.83,1.87-22.64-4.67-6.98-11.52-8.57-19.63-6.83-28.54,6.15-50.36,32.9-51.66,65.01Z"/>
  <path class="cls-1" d="M1178.23,1290.41c1.26-48.52,19.18-88.91,57.97-117.88,45.35-33.87,99.37-23.25,130.64,23.98,36.7,55.43,28.29,139.89-18.45,185.2-54.71,53.04-128.39,37.93-158.76-32.11-8.35-19.25-10.25-39.23-11.4-59.2ZM1288.56,1202.57c.26-11.18-5.9-17.68-15.04-17.19-5.11.27-10.12,1.44-14.66,4.35-27.11,17.39-31.81,45.56-35.65,74.08-.54,3.98,2.15,6.78,5.92,8.45,4.81,2.14,7.11-1.43,8.86-4.35,11.18-18.64,25.68-34.34,41.68-48.86,5.28-4.79,9.11-10.75,8.89-16.47Z"/>
  <path class="cls-7" d="M970.35,1061.94c2.26-19.57,13.88-37.89,34.01-50.6,9.47-5.98,19.49-11.1,30.38-14.33,8.19-2.43,16.02-3.68,22.84,3.08,7.46,7.39,9.27,17.27,5.56,25.83-11.76,27.17-30.01,49.87-56.27,63.9-20.83,11.13-36.86-.2-36.53-27.88Z"/>
  <path class="cls-7" d="M1750.35,1048.94c2.26-19.57,13.88-37.89,34.01-50.6,9.47-5.98,19.49-11.1,30.38-14.33,8.19-2.43,16.02-3.68,22.84,3.08,7.46,7.39,9.27,17.27,5.56,25.83-11.76,27.17-30.01,49.87-56.27,63.9-20.83,11.13-36.86-.2-36.53-27.88Z"/>
  <path class="cls-1" d="M1832.31,1912.37c-1.21-1.33-2.41-2.65-3.62-3.98-.7-3.95-.82-7.89.37-11.77,9.9-32.34,19.59-64.75,29.85-96.98,4.19-13.16,9.08-15.18,22.34-11.46l.64-.5s-.68.44-.68.44c7.03,6.28,7.71,14.89,8.61,23.42,2.68,25.56,5.34,51.11,8.01,76.67,5.11-11.39,8.55-22.87,11.81-34.4.42-1.49-.05-3.23-.11-4.86.22-.53.33-1.09.3-1.67,6.58-11.1,7.86-23.99,12.11-35.89,0,0-.15.14-.15.14.79-.65,1.59-1.3,2.38-1.95,0,0-.22.23-.22.23,1.27-.83,2.55-1.66,3.82-2.49,0,0-.13.05-.13.05,3.29-.04,6.58-.08,9.87-.13l.31.39s.47-.17.47-.17c1.01.75,2.02,1.51,3.03,2.26.49.57.98,1.14,1.46,1.71.82,1.48,1.65,2.95,2.47,4.43-.38.5-.32.94.19,1.31,0,.66.02,1.32.03,1.98-.17,1.25-.34,2.51-.52,3.76-9.64,33.04-19,66.18-29.03,99.1-5.73,18.8-18.48,22.17-33.33,9.65l-.46.63s.51-.58.51-.58c-5.38-14.45-3.95-29.89-6.49-44.77-2.26-13.23-3.58-26.63-5.31-39.95-7.05,18.18-11.91,36.43-17.11,54.58-3.5,12.2-9.35,14.97-21.43,10.8Z"/>
  <path class="cls-1" d="M1520.32,1842.45c-.79-3.1-3.19-3.76-5.92-3.93-20.69-21.99-28.13-47.8-21.94-77.36,3.04-14.5,8.74-29.21,21.19-36.63,30.12-17.95,61.68-8.25,77.73,20.32,13.47,23.97,14.22,48.73,3.73,73.98-.71,1.27-1.42,2.54-2.13,3.81-18.41,26.63-47.38,29.4-72.66,19.81ZM1518.64,1780.82c.74,8.89,2.15,17.95,7.37,25.97,5.66,8.7,13.3,13.52,24.04,12.47,10.43-1.02,16.46-7.32,20.23-16.49,6.64-16.15,1.75-40.37-10.64-52.39-10.95-10.63-27.86-8.17-35.23,5.22-4.24,7.71-5.34,16.2-5.78,25.22Z"/>
  <path class="cls-1" d="M1407.32,1847.45c-.79-3.1-3.19-3.76-5.92-3.93-20.69-21.99-28.13-47.8-21.94-77.36,3.04-14.5,8.74-29.21,21.19-36.63,30.12-17.95,61.68-8.25,77.73,20.32,13.47,23.97,14.22,48.73,3.73,73.98-.71,1.27-1.42,2.54-2.13,3.81-18.41,26.63-47.38,29.4-72.66,19.81ZM1405.64,1785.82c.74,8.89,2.15,17.95,7.37,25.97,5.66,8.7,13.3,13.52,24.04,12.47,10.43-1.02,16.46-7.32,20.23-16.49,6.64-16.15,1.75-40.37-10.64-52.39-10.95-10.63-27.86-8.17-35.23,5.22-4.24,7.71-5.34,16.2-5.78,25.22Z"/>
  <path class="cls-1" d="M1697.47,1856.54c-14.68-28.27-13.37-56.28,2.19-83.6,17.31-30.4,53.68-37.94,78.01-15.66,20.82,19.07,23.87,43.98,17.98,70.03-5.55,24.54-19.66,41.98-45.4,48.24-14.15,3.44-26.43-2.25-39.09-6.61-.52-.27-1.07-.38-1.65-.33-1.06-3.06-3.7-4.54-6.2-6.16-.57-.6-1.15-1.19-1.72-1.79-.68-.79-1.36-1.59-2.03-2.38,0,0,.19.19.19.19-.78-.67-1.56-1.33-2.34-2l.08.07ZM1715.15,1817.38c.33,2.11.67,5.4,1.36,8.61,2.76,12.93,10.72,21.2,21.68,22.7,10.26,1.4,19.62-5.7,26.12-17.23,6.46-11.47,5-23.56,4.46-35.42-.48-10.33-10.53-21.09-18.65-22.7-10-1.99-19.41,2.95-26.27,13.78-5.61,8.88-8.2,18.65-8.69,30.26Z"/>
  <path class="cls-2" d="M1165,1907.6l-.55-.47s-.71.1-.71.1c-5.71-4.47-8.65-10.12-9.35-17.56-3.11-32.9-3.38-65.92-4.6-98.9-.21-5.66,1.52-11.05,4.13-16.11,3.04-2.16,6.07-4.32,9.11-6.48,11.27-3.29,18.21,2.96,24.3,11.06,0,0,.52.68.52.68,6.42,9.03,12.83,18.05,19.25,27.08.03.39.22.69.56.88,3.74,4.99,7.47,9.99,11.21,14.98-.02.54.23.9.74,1.09,8.79,11.47,17.57,22.93,26.36,34.4,0,0-.11-.11-.11-.11,2.2,5.62,6.97,10.39,5.78,17.12-1.74,9.86-8.63,13.4-22.8,11.81,0,0,.13.11.13.11-2.68-2.68-5.36-5.36-8.04-8.05,0,0,.1.11.1.11-3.59-10.86-10-11.57-18.96-5.82-3.48,2.24-7.82,3.21-11.87,4.46-4.21,1.29-6.51,3.2-5.8,8.25,1.14,8.21-1.11,15.5-7.9,20.88,0,0,.12-.12.12-.12-3.87.2-7.74.39-11.6.59ZM1201.11,1842.65c-7.42-11.15-14.38-21.61-23.04-34.62,1.02,15.77,1.85,28.64,2.71,41.83,6.86-2.43,13-4.61,20.33-7.21Z"/>
  <path class="cls-1" d="M1636.92,1732.9c11.82-2.28,23.36-5.98,35.76-2.09,15.88,4.99,20.09,10.95,17.27,27.16,0,0,.04-.02.04-.02-.69.77-1.39,1.54-2.08,2.31l.21-.21-2.35,2.05.19-.2c-5.72,3.79-11.54.64-17.32.27l.06.07c-10.44-6.22-19.18-4.79-27.56,4.5-10.4,11.54-14.03,37.26-7.26,51.42,4.91,10.26,15.88,15.4,28.22,13.21,14.78-2.62,18.77-.05,22.41,14.48-.19,1.27-.38,2.55-.57,3.82-3.17,5.89-8.34,8.72-14.68,10.28-20.36,5.01-37.41-1.13-52.33-14.95.02-.73-.32-1.2-1.03-1.39-3.23-3.78-3.92-9.45-8.87-11.94.02-.59-.08-1.16-.31-1.71.08-1.3.56-2.72.19-3.89-8.98-28.9-2.35-54.93,14.38-79.14,0,0-.18.17-.18.17.74-.78,1.48-1.55,2.23-2.33.54-.57,1.07-1.14,1.61-1.71,4.01-3.4,8.02-6.8,12.04-10.21,0,0-.05.06-.05.06Z"/>
  <path class="cls-1" d="M1284.96,1759.47c-.31-1.11-.61-2.23-.92-3.34-1.37-5.07.5-9.4,3.1-13.56,0,0-.12.12-.12.12,3.12-2.09,6.57-2.7,10.29-2.8,24.82-.67,49.32-3.56,72.98-11.5,7.02-2.36,13.15-2.29,16.98,5,3.42,6.5-.01,14.39-7.73,19.11-6,3.67-12.78,5.25-19.43,6.85-5.05,1.22-6.22,3.3-5.25,8.27,4.79,24.53,8.69,49.25,14.12,73.64,2.33,10.46.05,17.15-9.26,21.78,0,0,.16-.12.16-.12-4.71,1.01-9.06-.41-13.38-1.99-.64-.53-1.28-1.05-1.92-1.58-1.25-1.49-2.49-2.97-3.74-4.46,0,0,.13.12.13.12-4.16-27.74-10.66-55.02-15.82-82.56-1.08-5.78-3.19-6.92-8.33-5.94-9.51,1.81-18.92,1.67-27.86-2.77,0,0,.13.12.13.12-1.38-1.46-2.77-2.91-4.15-4.37Z"/>
  <path class="cls-1" d="M1196.86,1773.89c-.31-1.11-.61-2.23-.92-3.34-1.37-5.07.5-9.4,3.1-13.56,0,0-.12.12-.12.12,3.12-2.09,6.57-2.7,10.29-2.8,24.82-.67,49.32-3.56,72.98-11.5,7.02-2.36,13.15-2.29,16.98,5,3.42,6.5-.01,14.39-7.73,19.11-6,3.67-12.78,5.25-19.43,6.85-5.05,1.22-6.22,3.3-5.25,8.27,4.79,24.53,8.69,49.25,14.12,73.64,2.33,10.46.05,17.15-9.26,21.78,0,0,.16-.12.16-.12-4.71,1.01-9.06-.41-13.38-1.99-.64-.53-1.28-1.05-1.92-1.58-1.25-1.49-2.49-2.97-3.74-4.46,0,0,.13.12.13.12-4.16-27.74-10.66-55.02-15.82-82.56-1.08-5.78-3.19-6.92-8.33-5.94-9.51,1.81-18.92,1.67-27.86-2.77,0,0,.13.12.13.12-1.38-1.46-2.77-2.91-4.15-4.37Z"/>
  <path class="cls-1" d="M1059.68,1852.66c-1.28.06-2.57.12-3.85.17-3.17-1.49-6.34-2.98-9.51-4.47,0,0,.12.12.12.12-3.54-5.62-5.35-11.44-.94-17.38,2.65-3.57,6.91-4.75,10.86-6.39,21.72-9.04,43.36-18.11,62.24-32.73,5.16-4,12.11-4.31,18.2-.09,0,0-.12-.11-.12-.11,5.56,9.2,3.48,16.96-4.58,23.47-3.07,2.48-6.01,5.42-9.53,6.97-8.52,3.75-7.97,8.66-4.54,16.21,9.81,21.64,22.1,41.89,33.75,62.51,4.54,8.04,5.01,15.43-1.47,22.56.16.18.32.36.49.54-.17-.17-.35-.33-.52-.5-12.28,5.69-17.28,3.92-23.25-8.2-9.99-20.3-19.25-40.95-31.61-60.03-8.34-12.87-8.04-12.99-22.79-7.02-4.21,1.71-8.62,2.94-12.93,4.39Z"/>
  <path class="cls-1" d="M1796.18,1891.38c-1.75-3.97-2.26-7.74-1.05-12.28,8.49-31.88,16.62-63.86,24.81-95.82,2.05-8.02,6.39-12.71,15.31-11.28,1.03.24,2.07.49,3.1.73,4.72,3.93,6.57,8.78,5.03,14.87-8.37,33.09-15.71,66.45-25.63,99.14-1.61,5.29-4.58,8.62-10.28,9.07-2.55-.12-5.1-.24-7.66-.35-.69-.85-1.37-1.71-2.06-2.56l-1.57-1.54Z"/>
  <path class="cls-5" d="M1833.89,1727.87c2.92-.12,5.84-.24,8.77-.36"/>
  <path class="cls-2" d="M1073,1836c-6.26,4.03-16.85.83-18-6"/>
  <path class="cls-2" d="M1244.58,1887.41c-6.24.88-11.53-1.93-10.66-8.17"/>
  <path class="cls-5" d="M1742.42,1885.95c.77.96,1.55,1.92,2.32,2.89-.77-.96-1.55-1.92-2.32-2.89Z"/>
  <path class="cls-5" d="M1543.64,1728.03c-.84.87-1.67,1.75-2.51,2.62.84-.87,1.67-1.75,2.51-2.62Z"/>
  <path class="cls-7" d="M1647.54,1263.85c1.29-32.11,23.12-58.87,51.66-65.01,8.11-1.75,14.96-.15,19.63,6.83,5.23,7.81,3.8,15.74-1.87,22.64-3.02,3.68-6.96,6.74-10.88,9.54-13.4,9.58-25.59,20.41-35.87,33.34-4.16,5.23-8.16,11.9-16.21,8.7-7.91-3.14-6.05-10.98-6.46-16.03Z"/>
  <path class="cls-7" d="M1288.56,1202.57c.22,5.72-3.61,11.68-8.89,16.47-16,14.52-30.5,30.23-41.68,48.86-1.75,2.92-4.05,6.49-8.86,4.35-3.77-1.67-6.46-4.47-5.92-8.45,3.84-28.51,8.54-56.69,35.65-74.08,4.54-2.91,9.55-4.07,14.66-4.35,9.14-.49,15.3,6.01,15.04,17.19Z"/>
  <path class="cls-5" d="M1616.63,1745.27c-.88.77-1.76,1.54-2.65,2.31.88-.77,1.76-1.54,2.65-2.31Z"/>
  <path class="cls-5" d="M1618.74,1742.9c-.78.87-1.56,1.74-2.34,2.61.78-.87,1.56-1.74,2.34-2.61Z"/>
  <path class="cls-4" d="M1797.26,1784.38c-.62.24-1.39.82-1.82.63-.43-.2-.52-1.15-.77-1.77.62-.24,1.39-.82,1.81-.63.43.19.53,1.14.77,1.77Z"/>
</svg>